<svg height="22" width="22" xmlns="http://www.w3.org/2000/svg" xmlns:xlink="http://www.w3.org/1999/xlink"><linearGradient id="a"><stop offset="0" stop-color="#e3a841"/><stop offset="1" stop-color="#eabd6f"/></linearGradient><linearGradient id="b" gradientTransform="matrix(.70588236 0 0 .70588341 -273.52104 -365.26974)" gradientUnits="userSpaceOnUse" x2="0" y1="545.79797" y2="528.79797"><stop offset="0" stop-color="#529fa3"/><stop offset="1" stop-color="#59a7ab"/></linearGradient><linearGradient id="c" gradientTransform="matrix(.76923079 0 0 .59999821 -299.05497 -308.67785)" gradientUnits="userSpaceOnUse" x2="0" y1="527.79797" y2="517.79797"><stop offset="0" stop-color="#c6cdd1"/><stop offset="1" stop-color="#ccd5d6"/></linearGradient><linearGradient id="d" gradientTransform="matrix(.49999737 0 0 .75000007 -191.28468 -386.84852)" gradientUnits="userSpaceOnUse" x1="398.57144" x2="400.57144" xlink:href="#a"/><linearGradient id="e" gradientTransform="matrix(.49999731 0 0 .75000007 -186.28465 -386.84852)" gradientUnits="userSpaceOnUse" x1="398.57144" x2="400.57144" xlink:href="#a"/><linearGradient id="f" gradientUnits="userSpaceOnUse" x1="10.999994" x2="11.000004" y1="21.99997" y2="8.999997"><stop offset="0" stop-color="#90c4c6"/><stop offset="1" stop-color="#f4fcff"/></linearGradient><linearGradient id="g" gradientUnits="userSpaceOnUse" x1="10" x2="17" y1="13" y2="20"><stop offset="0" stop-color="#292c2f"/><stop offset="1" stop-opacity="0"/></linearGradient><path d="m5 8h12v12h-12z" fill="url(#b)" stroke-width=".666667"/><path d="m6 2h10v6h-10z" fill="url(#c)" stroke-width=".654653"/><path d="m7 3h3.035741v3h-3.035741z" fill="#23262c" stroke-width=".754449"/><path d="m11.964319 3h3.035681v3h-3.035681z" fill="#23262c" stroke-width=".754441"/><path d="m8 3h1v3h-1z" fill="url(#d)" stroke-width=".612371"/><path d="m13 3h1v3h-1z" fill="url(#e)" stroke-width=".612371"/><path d="m5 19h12v.999855h-12z" fill="#496c92" stroke-width=".816449"/><path d="m10 15 2-6 5 5v6h-4.414l-2.293-2.293.707-1.707z" fill="url(#g)" opacity=".2"/><path d="m10 9v6h2v-6zm.999999 7.000004c-.553999 0-.999999.446001-.999999 1 0 .554.446 1.000001.999999 1.000001.554001 0 1.000001-.446001 1.000001-1.000001 0-.553999-.446-1-1.000001-1z" fill="url(#f)"/></svg>